# Blender 5.1.2
# www.blender.org
mtllib Car5_Police_naked.mtl
o Car5_Police
v -0.617739 0.402165 3.691927
v -0.617740 0.402164 3.571414
v -0.528364 0.402164 3.579733
v -0.528363 0.402165 3.691927
v -0.617739 0.779562 3.728289
v -0.528364 0.779562 3.728289
v -0.528364 0.779561 3.616094
v -0.617740 0.779561 3.607775
v 0.617739 0.402165 3.691927
v 0.528363 0.402165 3.691927
v 0.528364 0.402164 3.579733
v 0.617740 0.402164 3.571414
v 0.617740 0.779562 3.728289
v 0.617740 0.779561 3.607775
v 0.528364 0.779561 3.616094
v 0.528364 0.779562 3.728289
v -0.823813 1.963770 -0.348218
v -0.911731 2.066557 -0.446880
v 0.911731 2.066557 -0.446880
v 0.823813 1.963770 -0.348218
v -0.834021 2.217585 -0.379180
v 0.834021 2.217585 -0.379180
v -0.823813 1.963770 -0.218254
v 0.823813 1.963770 -0.218254
v 0.911731 2.066557 -0.119592
v -0.911731 2.066557 -0.119592
v 0.834021 2.217585 -0.187292
v -0.834021 2.217585 -0.187292
v -0.874799 2.019109 0.410524
v 0.000000 2.019109 0.515716
v 0.000000 2.019109 -1.411598
v -0.874799 2.019109 -1.350216
v -1.151683 1.436884 1.210970
v 0.000000 1.436884 1.316162
v 0.000000 1.436884 -2.042169
v -1.151683 1.436884 -1.980788
v -1.151683 1.214155 3.432553
v 0.000000 1.281993 -3.501236
v -1.231620 1.199518 -2.022254
v -1.231620 1.199518 1.210970
v 0.000000 1.214155 3.528086
v -1.151683 1.281993 -3.446438
v -1.220391 0.770743 -1.315370
v -1.172014 0.351563 -1.164495
v -1.172014 0.351563 1.210970
v -1.231620 0.980281 -1.596089
v -1.231620 0.868042 1.210970
v 0.000000 0.868034 3.528087
v -1.095946 0.472415 3.432553
v -1.197570 1.016695 2.257038
v -1.206559 0.973561 2.020610
v -1.229735 0.973562 -2.056949
v -1.167820 0.770739 2.747829
v -1.115875 0.472418 2.858393
v -1.151683 0.868034 3.432553
v -1.174800 0.817346 2.716612
v -1.151683 0.940304 -3.446438
v -1.222796 0.876019 -2.234601
v 0.000000 0.550178 -3.501236
v -1.198911 0.753151 -2.345546
v -1.143731 0.504783 -2.471313
v -1.231620 0.868042 -1.395773
v -1.189036 0.980278 2.481469
v -1.183319 0.868038 2.658297
v -1.231620 1.016697 -1.820520
v -1.211812 0.868040 1.868436
v -1.095946 0.550178 -3.446438
v -1.204077 0.753151 1.732015
v -1.167283 0.351562 1.492231
v 0.000000 0.472415 3.528087
v -0.633957 0.770743 -1.315370
v -0.633957 0.351563 -1.164495
v -0.633957 0.973561 2.020609
v -0.633957 1.016695 2.257038
v -0.633957 0.770739 2.747828
v -0.633957 0.472418 2.858392
v -0.633957 0.504783 -2.471313
v -0.633957 0.753151 -2.345546
v -0.633957 0.980281 -1.596089
v -0.633957 0.868042 -1.395773
v -0.633957 0.980278 2.481469
v -0.633957 0.868038 2.658296
v -0.633957 0.876019 -2.234601
v -0.633957 0.973562 -2.056950
v -0.633957 1.016697 -1.820521
v -0.633958 0.753151 1.732014
v -0.633958 0.868040 1.868436
v -0.633957 0.351563 1.492230
v -0.633957 0.817346 2.716612
v 0.874799 2.019109 0.410524
v 0.874799 2.019109 -1.350216
v 1.151683 1.436884 1.210970
v 1.151683 1.436884 -1.980788
v 1.151683 1.214155 3.432553
v 1.231620 1.199518 -2.022254
v 1.231620 1.199518 1.210970
v 1.151683 1.281993 -3.446438
v 1.220391 0.770743 -1.315370
v 1.172014 0.351563 1.210970
v 1.172014 0.351563 -1.164495
v 1.231620 0.980281 -1.596089
v 1.231620 0.868042 1.210970
v 1.095946 0.472415 3.432553
v 1.197570 1.016695 2.257038
v 1.206559 0.973561 2.020610
v 1.229735 0.973562 -2.056949
v 1.115875 0.472418 2.858393
v 1.167820 0.770739 2.747829
v 1.174800 0.817346 2.716612
v 1.151683 0.868034 3.432553
v 1.222796 0.876019 -2.234601
v 1.151683 0.940304 -3.446438
v 1.198911 0.753151 -2.345546
v 1.143731 0.504783 -2.471313
v 1.231620 0.868042 -1.395773
v 1.189036 0.980278 2.481469
v 1.183319 0.868038 2.658297
v 1.231620 1.016697 -1.820520
v 1.211812 0.868040 1.868436
v 1.095946 0.550178 -3.446438
v 1.204077 0.753151 1.732015
v 1.167283 0.351562 1.492231
v 0.633957 0.351563 -1.164495
v 0.633957 0.770743 -1.315370
v 0.633957 1.016695 2.257038
v 0.633957 0.973561 2.020609
v 0.633957 0.472418 2.858392
v 0.633957 0.770739 2.747828
v 0.633957 0.753151 -2.345546
v 0.633957 0.504783 -2.471313
v 0.633957 0.868042 -1.395773
v 0.633957 0.980281 -1.596089
v 0.633957 0.868038 2.658296
v 0.633957 0.980278 2.481469
v 0.633957 0.973562 -2.056950
v 0.633957 0.876019 -2.234601
v 0.633957 1.016697 -1.820521
v 0.633958 0.868040 1.868436
v 0.633958 0.753151 1.732014
v 0.633957 0.351563 1.492230
v 0.633957 0.817346 2.716612
v 0.000000 0.779553 3.664399
v -1.213857 0.779553 3.553711
v -1.179274 0.472421 3.522455
v 0.000000 0.472421 3.628235
v -1.214015 0.779553 3.337315
v -1.179432 0.472421 3.337325
v 0.000000 0.779553 3.523597
v -1.136446 0.779553 3.425507
v -1.137965 0.779553 3.337315
v -1.097611 0.472421 3.337325
v 1.179274 0.472421 3.522455
v 1.213857 0.779553 3.553711
v 1.179432 0.472421 3.337325
v 1.214015 0.779553 3.337315
v 1.136446 0.779553 3.425507
v 1.137965 0.779553 3.337315
v 1.097611 0.472421 3.337325
v 1.390602 1.516178 0.860203
v 1.390522 1.517098 0.764267
v 1.179281 1.525396 0.814564
v 1.179361 1.524476 0.910500
v 1.198889 1.369555 0.806227
v 1.172317 1.370598 0.812554
v 1.383559 1.362301 0.762257
v 1.201615 1.368531 0.901533
v 1.383640 1.361380 0.858193
v 1.172398 1.369678 0.908490
v 1.186305 1.326875 0.904468
v 1.184901 1.327847 0.808847
v -1.390602 1.516178 0.860203
v -1.179361 1.524476 0.910500
v -1.179280 1.525396 0.814564
v -1.390521 1.517098 0.764267
v -1.198889 1.369555 0.806227
v -1.383559 1.362300 0.762257
v -1.172317 1.370598 0.812554
v -1.201615 1.368531 0.901533
v -1.172398 1.369678 0.908490
v -1.383640 1.361380 0.858193
v -1.186305 1.326875 0.904468
v -1.184901 1.327847 0.808847
v 0.000000 0.811282 -3.637547
v 0.000000 0.550184 -3.601384
v -1.179274 0.550182 -3.522455
v -1.213857 0.811279 -3.553711
v -1.179432 0.550182 -3.337325
v -1.214015 0.811279 -3.337315
v -1.136446 0.811279 -3.425507
v 0.000000 0.811282 -3.496746
v -1.137965 0.811279 -3.337315
v -1.097611 0.550182 -3.337325
v -1.095946 0.550176 -3.432553
v 1.213857 0.811279 -3.553711
v 1.179274 0.550182 -3.522455
v 1.214015 0.811279 -3.337315
v 1.179432 0.550182 -3.337325
v 1.136446 0.811279 -3.425507
v 1.137965 0.811279 -3.337315
v 1.097611 0.550182 -3.337325
v 1.095946 0.550176 -3.432553
vn -0.0000 -1.0000 -0.0000
vn -0.0000 1.0000 -0.0000
vn -0.0000 -0.0959 0.9954
vn 1.0000 -0.0000 -0.0000
vn 0.0923 0.0955 -0.9911
vn -1.0000 -0.0000 -0.0000
vn -0.0923 0.0955 -0.9911
vn -0.0000 -0.6925 -0.7214
vn -0.0000 0.4090 -0.9125
vn -0.0000 -0.6925 0.7214
vn -0.0000 0.4090 0.9125
vn 0.7599 -0.6500 -0.0000
vn 0.8892 0.4575 -0.0000
vn -0.8892 0.4575 -0.0000
vn -0.7599 -0.6500 -0.0000
vn -0.0536 0.8075 0.5874
vn -0.0687 0.8179 0.5712
vn -0.0357 0.7420 -0.6694
vn -0.0475 0.7339 -0.6776
vn -0.9031 0.4295 -0.0000
vn -0.0089 0.9950 0.0999
vn -0.0091 0.9950 0.0998
vn -0.0086 0.9949 0.1001
vn -0.0054 0.9944 -0.1054
vn -0.0000 0.9944 -0.1056
vn -0.0000 0.9944 -0.1053
vn -0.9477 0.3192 -0.0000
vn -0.0083 0.9949 0.1002
vn -0.0050 0.9944 -0.1051
vn -0.9934 -0.1146 -0.0000
vn -0.9453 0.3243 -0.0343
vn -0.0847 -0.0047 0.9964
vn -0.0831 -0.0015 0.9965
vn -0.0863 -0.0014 0.9963
vn -0.9472 0.3190 0.0320
vn -0.9992 0.0162 0.0354
vn -0.9992 0.0189 0.0358
vn -0.9993 0.0153 0.0352
vn -0.9984 0.0003 -0.0560
vn -0.9867 -0.1591 0.0342
vn -0.9894 -0.1394 0.0418
vn -0.9983 -0.0000 -0.0586
vn -0.0474 0.0005 -0.9989
vn -0.0475 -0.0000 -0.9989
vn -0.0827 -0.0000 0.9966
vn -0.0494 -0.0056 -0.9988
vn -0.9808 -0.1810 -0.0728
vn -0.9991 0.0095 0.0413
vn -0.9991 0.0134 0.0408
vn -0.9991 0.0098 0.0404
vn -0.9984 0.0222 -0.0512
vn -1.0000 -0.0054 -0.0049
vn -1.0000 -0.0005 -0.0004
vn -0.9995 0.0026 0.0314
vn -0.9995 -0.0000 0.0301
vn -0.9995 0.0009 0.0306
vn -0.0499 -0.0071 -0.9987
vn -0.9884 -0.1412 -0.0550
vn -0.0000 -0.0000 1.0000
vn -0.9992 0.0022 0.0387
vn -0.9938 -0.1075 0.0288
vn -0.9943 -0.1025 0.0300
vn -0.9942 -0.1038 0.0297
vn -0.9937 -0.1082 0.0287
vn -0.9889 -0.1334 -0.0651
vn -0.9919 -0.1201 0.0405
vn -0.9995 0.0037 0.0320
vn -0.9922 -0.1113 0.0556
vn -0.9933 -0.1146 0.0167
vn -0.0868 -0.0000 0.9962
vn -0.9993 0.0031 0.0385
vn -1.0000 -0.0073 -0.0066
vn -0.0012 -0.9990 -0.0454
vn -0.0023 -0.9989 -0.0466
vn -0.0000 -0.9989 -0.0473
vn -0.0000 -0.3387 -0.9409
vn -0.0000 -0.9838 0.1795
vn -0.0000 -0.3475 -0.9377
vn -0.0000 -0.4518 0.8921
vn -0.0000 -0.8724 -0.4888
vn -0.0000 -0.8443 -0.5359
vn -0.0000 -0.8766 0.4813
vn -0.0000 -0.9871 -0.1602
vn -0.0000 -0.7649 0.6442
vn -0.0000 -0.5127 0.8586
vn -0.0000 -0.6702 0.7422
vn -0.0000 -0.6370 -0.7709
vn -0.0000 -0.7547 -0.6561
vn -0.0000 -0.8218 0.5698
vn -0.0000 -0.5565 -0.8309
vn 0.0536 0.8075 0.5874
vn 0.0687 0.8179 0.5712
vn 0.0357 0.7420 -0.6694
vn 0.0475 0.7339 -0.6776
vn 0.9031 0.4295 -0.0000
vn 0.0089 0.9950 0.0999
vn 0.0086 0.9949 0.1001
vn 0.0091 0.9950 0.0998
vn 0.0054 0.9944 -0.1054
vn 0.9477 0.3192 -0.0000
vn 0.0083 0.9949 0.1002
vn 0.0050 0.9944 -0.1051
vn 0.9934 -0.1146 -0.0000
vn 0.9453 0.3243 -0.0343
vn 0.0847 -0.0048 0.9964
vn 0.0863 -0.0014 0.9963
vn 0.0831 -0.0014 0.9965
vn 0.9472 0.3190 0.0320
vn 0.9992 0.0162 0.0354
vn 0.9992 0.0189 0.0358
vn 0.9993 0.0153 0.0352
vn 0.9984 0.0003 -0.0560
vn 0.9867 -0.1591 0.0342
vn 0.9894 -0.1394 0.0418
vn 0.9983 -0.0000 -0.0586
vn 0.0473 0.0007 -0.9989
vn 0.0475 -0.0000 -0.9989
vn 0.0827 -0.0000 0.9966
vn 0.0494 -0.0056 -0.9988
vn 0.9808 -0.1810 -0.0728
vn 0.9991 0.0095 0.0413
vn 0.9991 0.0098 0.0404
vn 0.9991 0.0134 0.0408
vn 0.9984 0.0222 -0.0512
vn 1.0000 -0.0053 -0.0048
vn 1.0000 -0.0005 -0.0004
vn 0.9995 0.0026 0.0314
vn 0.9995 0.0009 0.0306
vn 0.9995 -0.0000 0.0301
vn 0.0499 -0.0071 -0.9987
vn 0.9884 -0.1412 -0.0550
vn 0.9992 0.0022 0.0387
vn 0.9943 -0.1025 0.0300
vn 0.9937 -0.1082 0.0287
vn 0.9937 -0.1082 0.0286
vn 0.9933 -0.1139 0.0181
vn 0.9889 -0.1334 -0.0651
vn 0.9919 -0.1201 0.0405
vn 0.9995 0.0037 0.0320
vn 0.9922 -0.1113 0.0556
vn 0.9933 -0.1146 0.0167
vn 0.0868 -0.0000 0.9962
vn 0.9993 0.0031 0.0385
vn 1.0000 -0.0073 -0.0066
vn 0.0012 -0.9990 -0.0454
vn 0.0023 -0.9989 -0.0466
vn -0.0000 -0.9961 0.0881
vn -0.0000 -0.9932 -0.1164
vn -0.0000 -0.9990 -0.0440
vn -0.0002 -1.0000 -0.0000
vn -0.0895 -0.1136 0.9895
vn -0.9937 -0.1119 0.0008
vn -0.0000 -0.0000 -1.0000
vn -0.0000 -1.0000 0.0001
vn 0.0895 -0.1136 0.9895
vn 0.9937 -0.1119 0.0008
vn 0.1293 0.9915 0.0132
vn 0.1293 0.9915 0.0130
vn -0.2278 0.0430 -0.9728
vn 0.2278 -0.0432 0.9727
vn 0.2277 -0.0432 0.9728
vn 0.2276 -0.0432 0.9728
vn 0.9913 -0.1320 -0.0024
vn 0.9913 -0.1320 -0.0019
vn -0.9913 0.1318 0.0024
vn -0.9913 0.1318 0.0021
vn -0.1292 -0.9915 -0.0127
vn -0.1292 -0.9915 -0.0129
vn -0.9961 -0.0883 0.0081
vn -0.2247 0.0676 -0.9721
vn 0.8557 -0.5164 -0.0326
vn 0.8558 -0.5164 -0.0322
vn 0.2246 -0.0676 0.9721
vn 0.1277 0.9917 0.0134
vn 0.1277 0.9917 0.0131
vn 0.1277 0.9917 0.0130
vn -0.2277 0.0431 -0.9728
vn 0.2276 -0.0431 0.9728
vn 0.2277 -0.0423 0.9728
vn 0.2277 -0.0430 0.9728
vn 0.9912 -0.1320 -0.0019
vn 0.9912 -0.1320 -0.0010
vn -0.9913 0.1319 0.0020
vn -0.9913 0.1319 0.0010
vn -0.1276 -0.9917 -0.0130
vn -0.9962 -0.0863 0.0080
vn -0.9962 -0.0865 0.0080
vn -0.9962 -0.0864 0.0074
vn -0.9962 -0.0864 0.0080
vn -0.2248 0.0675 -0.9721
vn -0.2248 0.0674 -0.9721
vn 0.8549 -0.5178 -0.0329
vn 0.8548 -0.5178 -0.0328
vn 0.8549 -0.5179 -0.0315
vn 0.2247 -0.0682 0.9720
vn 0.2248 -0.0676 0.9721
vn -0.0673 -0.1321 -0.9889
vn -0.9913 -0.1314 -0.0008
vn -0.0000 -1.0000 -0.0001
vn 0.0673 -0.1321 -0.9889
vn 0.9913 -0.1314 -0.0008
vt 0.340000 0.960000
vt 0.340000 0.990000
vt 0.360000 0.990000
vt 0.360000 0.960000
vt 0.330000 0.940000
vt 0.300000 0.940000
vt 0.300000 0.990000
vt 0.330000 0.990000
vt 0.670511 0.772609
vt 0.683815 0.788163
vt 0.407889 0.788163
vt 0.421192 0.772609
vt 0.672056 0.811016
vt 0.419648 0.811016
vt 0.373293 0.772609
vt 0.358364 0.788163
vt 0.392959 0.772609
vt 0.368608 0.811016
vt 0.397645 0.811016
vt 0.419648 0.840053
vt 0.672056 0.840053
vt 0.694059 0.811016
vt 0.733340 0.788163
vt 0.723096 0.811016
vt 0.698744 0.772609
vt 0.718410 0.772609
vt 0.443467 0.258258
vt 0.428771 0.380482
vt 0.698047 0.380480
vt 0.689470 0.258257
vt 0.331632 0.219574
vt 0.316936 0.380483
vt 0.786148 0.380479
vt 0.777571 0.219571
vt 0.769984 0.160307
vt 0.324046 0.160310
vt 0.435881 0.241655
vt 0.681884 0.241654
vt 0.017590 0.219576
vt 0.990002 0.380478
vt 0.660716 0.570562
vt 0.214777 0.570559
vt 0.208984 0.537395
vt 0.660716 0.537398
vt 0.010002 0.380485
vt 0.982345 0.219569
vt 0.307747 0.477489
vt 0.328827 0.418923
vt 0.660717 0.418926
vt 0.010003 0.548916
vt 0.268526 0.506765
vt 0.660716 0.491086
vt 0.779194 0.928630
vt 0.618285 0.976988
vt 0.626073 0.873355
vt 0.974758 0.539446
vt 0.806868 0.511856
vt 0.773836 0.505829
vt 0.204136 0.505825
vt 0.974759 0.435813
vt 0.875440 0.477493
vt 0.890888 0.435813
vt 0.974758 0.491087
vt 0.871078 0.484004
vt 0.010003 0.501177
vt 0.179316 0.492197
vt 0.820060 0.926759
vt 0.820060 0.974498
vt 0.980969 0.974497
vt 0.779193 0.976989
vt 0.980968 0.872251
vt 0.163815 0.475030
vt 0.146244 0.440329
vt 0.296513 0.491083
vt 0.838225 0.506768
vt 0.862931 0.491087
vt 0.237169 0.511852
vt 0.752575 0.491086
vt 0.827847 0.872252
vt 0.010003 0.446670
vt 0.618285 0.928629
vt 0.733515 0.475034
vt 0.700013 0.418926
vt 0.779194 0.873356
vt 0.234479 0.034815
vt 0.233074 0.056574
vt 0.224630 0.056970
vt 0.146247 0.057523
vt 0.131906 0.056574
vt 0.131100 0.034815
vt 0.719661 0.063819
vt 0.726845 0.068227
vt 0.726846 0.014794
vt 0.719662 0.014793
vt 0.741290 0.066148
vt 0.752547 0.066967
vt 0.752548 0.014794
vt 0.741290 0.014794
vt 0.712657 0.058704
vt 0.717921 0.063437
vt 0.717922 0.014793
vt 0.712657 0.014793
vt 0.775896 0.066271
vt 0.781884 0.061243
vt 0.781885 0.014794
vt 0.775896 0.014794
vt 0.730673 0.069251
vt 0.740211 0.069251
vt 0.740212 0.014794
vt 0.730674 0.014794
vt 0.722184 0.064849
vt 0.730604 0.065370
vt 0.730604 0.014794
vt 0.722185 0.014793
vt 0.762155 0.069079
vt 0.770613 0.068447
vt 0.770614 0.014794
vt 0.762155 0.014794
vt 0.750897 0.069251
vt 0.750898 0.014794
vt 0.759793 0.067446
vt 0.766288 0.066741
vt 0.766289 0.014794
vt 0.759793 0.014794
vt 0.777705 0.063389
vt 0.777706 0.014794
vt 0.719408 0.064073
vt 0.719408 0.014793
vt 0.738191 0.075683
vt 0.726286 0.013460
vt 0.758858 0.020644
vt 0.757490 0.069695
vt 0.759265 0.065410
vt 0.728059 0.076827
vt 0.737451 0.011779
vt 0.760632 0.017043
vt 0.768192 0.058915
vt 0.779744 0.040412
vt 0.768193 0.021306
vt 0.764254 0.018530
vt 0.776914 0.029726
vt 0.776392 0.051669
vt 0.777969 0.044696
vt 0.774617 0.055954
vt 0.767038 0.064412
vt 0.766418 0.024472
vt 0.775140 0.034010
vt 0.775778 0.127143
vt 0.324045 0.127146
vt 0.677014 0.067237
vt 0.324044 0.008674
vt 0.655934 0.008671
vt 0.974759 0.138664
vt 0.716236 0.096513
vt 0.324045 0.080834
vt 0.010003 0.125592
vt 0.177893 0.101604
vt 0.210926 0.095577
vt 0.780625 0.095573
vt 0.010003 0.021959
vt 0.093874 0.025561
vt 0.109321 0.067241
vt 0.113683 0.073752
vt 0.010003 0.077234
vt 0.805446 0.081945
vt 0.974758 0.090925
vt 0.820946 0.064778
vt 0.838518 0.030077
vt 0.688248 0.080831
vt 0.146536 0.096516
vt 0.121831 0.080835
vt 0.747592 0.101600
vt 0.232187 0.080834
vt 0.974758 0.036418
vt 0.251247 0.064782
vt 0.284748 0.008674
vt 0.224630 0.012660
vt 0.233074 0.013056
vt 0.146247 0.012107
vt 0.131906 0.013056
vt 0.224630 0.022228
vt 0.224630 0.047401
vt 0.204538 0.047401
vt 0.204538 0.022228
vt 0.165466 0.022228
vt 0.165466 0.047401
vt 0.146247 0.047401
vt 0.146247 0.022228
vt 0.165466 0.058084
vt 0.200402 0.011546
vt 0.165466 0.011546
vt 0.204538 0.011639
vt 0.204538 0.057990
vt 0.200402 0.058084
vt 0.587897 0.946667
vt 0.415140 0.946667
vt 0.419758 0.905654
vt 0.587897 0.905654
vt 0.386243 0.946667
vt 0.386245 0.905654
vt 0.410966 0.905654
vt 0.487179 0.960861
vt 0.588529 0.966138
vt 0.587258 0.984814
vt 0.498221 0.980292
vt 0.491408 0.990793
vt 0.497308 0.991967
vt 0.386395 0.905395
vt 0.376156 0.946001
vt 0.375542 0.904133
vt 0.382528 0.975265
vt 0.370666 0.960861
vt 0.375206 0.986632
vt 0.381554 0.987874
vt 0.469294 0.965944
vt 0.468405 0.979230
vt 0.848688 0.801260
vt 0.848688 0.765053
vt 0.884895 0.765053
vt 0.884895 0.801260
vt 0.972316 0.765053
vt 0.984895 0.765053
vt 0.984895 0.840053
vt 0.884895 0.840053
vt 0.853696 0.765053
vt 0.850434 0.800466
vt 0.849334 0.764577
vt 0.882816 0.764735
vt 0.853696 0.801260
vt 0.853242 0.765053
vt 0.851192 0.801260
vt 0.850965 0.765053
vt 0.587897 0.855030
vt 0.587897 0.896043
vt 0.419758 0.896043
vt 0.415140 0.855030
vt 0.410966 0.896043
vt 0.386245 0.896043
vt 0.386243 0.855030
vt 0.386395 0.896302
vt 0.375542 0.897565
vt 0.376156 0.855696
s 1
usemtl car5_police_mat
f 1/1/1 2/2/1 3/3/1 4/4/1
f 5/4/2 6/1/2 7/2/2 8/3/2
f 1/5/3 4/6/3 6/7/3 5/8/3
f 4/4/4 3/1/4 7/2/4 6/3/4
f 3/4/5 2/1/5 8/2/5 7/3/5
f 2/4/6 1/1/6 5/2/6 8/3/6
f 9/1/1 10/4/1 11/3/1 12/2/1
f 13/4/2 14/3/2 15/2/2 16/1/2
f 9/5/3 13/8/3 16/7/3 10/6/3
f 10/4/6 16/3/6 15/2/6 11/1/6
f 11/4/7 15/3/7 14/2/7 12/1/7
f 12/4/4 14/3/4 13/2/4 9/1/4
f 17/9/8 18/10/8 19/11/8 20/12/8
f 18/10/9 21/13/9 22/14/9 19/11/9
f 23/9/10 24/12/10 25/11/10 26/10/10
f 26/10/11 25/11/11 27/14/11 28/13/11
f 20/15/12 19/16/12 25/11/12 24/17/12
f 19/16/13 22/18/13 27/19/13 25/11/13
f 22/20/2 21/21/2 28/13/2 27/14/2
f 21/22/14 18/10/14 26/23/14 28/24/14
f 18/10/15 17/25/15 23/26/15 26/23/15
f 29/27/2 30/28/2 31/29/2
f 31/29/2 32/30/2 29/27/2
f 33/31/16 34/32/16 30/28/16
f 30/28/17 29/27/17 33/31/17
f 35/33/18 36/34/18 32/30/18
f 32/30/19 31/29/19 35/33/19
f 36/35/20 33/36/20 29/37/20
f 29/37/20 32/38/20 36/35/20
f 34/32/21 33/31/22 37/39/23
f 36/34/24 35/33/25 38/40/26
f 33/41/27 36/42/27 39/43/27
f 39/43/27 40/44/27 33/41/27
f 37/39/23 41/45/28 34/32/21
f 38/40/26 42/46/29 36/34/24
f 43/47/30 44/48/30 45/49/30
f 39/43/31 36/42/31 42/50/31
f 46/51/6 47/52/6 40/44/6
f 48/53/32 37/54/33 49/55/34
f 37/56/35 33/41/35 40/44/35
f 50/57/36 37/56/37 40/44/36
f 51/58/38 50/57/36 40/44/36
f 39/43/39 42/50/39 52/59/39
f 49/60/40 53/61/40 54/62/40
f 49/60/41 55/63/41 56/64/41
f 42/50/42 57/65/42 58/66/42
f 57/67/43 42/68/44 38/69/44
f 48/53/32 41/70/45 37/54/33
f 57/67/43 38/69/44 59/71/46
f 47/52/30 43/47/30 45/49/30
f 60/72/47 57/65/47 61/73/47
f 46/51/6 62/74/6 47/52/6
f 63/75/48 64/76/49 55/63/50
f 42/50/51 58/66/51 52/59/51
f 65/77/52 40/44/6 39/43/53
f 40/44/54 47/52/55 66/78/56
f 67/79/57 57/67/43 59/71/46
f 57/65/58 67/80/58 61/73/58
f 65/77/52 46/51/6 40/44/6
f 37/54/59 55/81/59 49/55/59
f 63/75/48 55/63/50 37/56/60
f 68/82/61 66/78/62 47/52/63
f 68/82/61 47/52/63 69/83/64
f 60/72/65 58/66/65 57/65/65
f 47/52/30 62/74/30 43/47/30
f 55/63/66 64/76/66 56/64/66
f 51/58/67 40/44/54 66/78/56
f 49/60/68 56/64/68 53/61/68
f 47/52/69 45/49/69 69/83/69
f 70/84/70 48/53/32 49/55/34
f 37/56/60 50/57/71 63/75/48
f 65/77/52 39/43/53 52/59/72
f 70/85/1 49/86/1 54/87/1
f 61/88/73 67/89/74 59/90/75
f 44/91/76 43/92/76 71/93/76 72/94/76
f 50/95/77 51/96/77 73/97/77 74/98/77
f 54/99/78 53/100/78 75/101/78 76/102/78
f 60/103/79 61/104/79 77/105/79 78/106/79
f 62/107/80 46/108/80 79/109/80 80/110/80
f 64/111/81 63/112/81 81/113/81 82/114/81
f 52/115/82 58/116/82 83/117/82 84/118/82
f 46/108/83 65/119/83 85/120/83 79/109/83
f 66/121/84 68/122/84 86/123/84 87/124/84
f 68/122/85 69/125/85 88/126/85 86/123/85
f 58/116/86 60/103/86 78/106/86 83/117/86
f 43/92/87 62/107/87 80/110/87 71/93/87
f 56/127/88 64/111/88 82/114/88 89/128/88
f 51/96/89 66/121/89 87/124/89 73/97/89
f 53/100/90 56/127/90 89/128/90 75/101/90
f 63/112/83 50/95/83 74/98/83 81/113/83
f 65/119/77 52/115/77 84/118/77 85/120/77
f 77/129/6 72/130/6 71/131/6 78/132/6
f 86/133/6 88/134/6 76/135/6 75/136/6
f 87/137/6 86/133/6 75/136/6 74/138/6
f 82/139/6 74/138/6 75/136/6 89/140/6
f 82/139/6 81/141/6 74/138/6
f 73/142/6 87/137/6 74/138/6
f 85/143/6 84/144/6 83/145/6 71/131/6
f 83/145/6 78/132/6 71/131/6
f 85/143/6 71/131/6 80/146/6 79/147/6
f 90/27/2 31/29/2 30/28/2
f 31/29/2 90/27/2 91/30/2
f 92/31/91 30/28/91 34/32/91
f 30/28/92 92/31/92 90/27/92
f 35/33/93 91/30/93 93/34/93
f 91/30/94 35/33/94 31/29/94
f 93/35/95 90/37/95 92/36/95
f 90/37/95 93/35/95 91/38/95
f 34/32/96 94/39/97 92/31/98
f 93/34/99 38/40/26 35/33/25
f 92/36/100 95/148/100 93/35/100
f 95/148/100 92/36/100 96/149/100
f 94/39/97 34/32/96 41/45/101
f 38/40/26 93/34/99 97/46/102
f 98/150/103 99/151/103 100/152/103
f 95/148/104 97/153/104 93/35/104
f 101/154/4 96/149/4 102/155/4
f 48/53/105 103/55/106 94/54/107
f 94/156/108 96/149/108 92/36/108
f 104/157/109 96/149/109 94/156/110
f 105/158/111 96/149/109 104/157/109
f 95/148/112 106/159/112 97/153/112
f 103/160/113 107/161/113 108/162/113
f 103/160/114 109/163/114 110/164/114
f 97/153/115 111/165/115 112/166/115
f 112/67/116 38/69/117 97/68/117
f 48/53/105 94/54/107 41/70/118
f 112/67/116 59/71/119 38/69/117
f 102/155/103 99/151/103 98/150/103
f 113/167/120 114/168/120 112/166/120
f 101/154/4 102/155/4 115/169/4
f 116/170/121 110/164/122 117/171/123
f 97/153/124 106/159/124 111/165/124
f 118/172/125 95/148/126 96/149/4
f 96/149/127 119/173/128 102/155/129
f 120/79/130 59/71/119 112/67/116
f 112/166/131 114/168/131 120/174/131
f 118/172/125 96/149/4 101/154/4
f 94/54/59 103/55/59 110/81/59
f 116/170/121 94/156/132 110/164/122
f 121/175/133 102/155/133 119/173/133
f 121/175/134 122/176/135 102/155/136
f 113/167/137 112/166/137 111/165/137
f 102/155/103 98/150/103 115/169/103
f 110/164/138 109/163/138 117/171/138
f 105/158/139 119/173/128 96/149/127
f 103/160/140 108/162/140 109/163/140
f 102/155/136 122/176/135 99/151/141
f 70/84/142 103/55/106 48/53/105
f 94/156/132 116/170/121 104/157/143
f 118/172/125 106/159/144 95/148/126
f 70/85/1 107/177/1 103/178/1
f 114/179/145 59/90/75 120/180/146
f 100/91/76 123/94/76 124/93/76 98/92/76
f 104/95/77 125/98/77 126/97/77 105/96/77
f 107/99/78 127/102/78 128/101/78 108/100/78
f 113/103/79 129/106/79 130/105/79 114/104/79
f 115/107/80 131/110/80 132/109/80 101/108/80
f 117/111/81 133/114/81 134/113/81 116/112/81
f 106/115/82 135/118/82 136/117/82 111/116/82
f 101/108/83 132/109/83 137/120/83 118/119/83
f 119/121/84 138/124/84 139/123/84 121/122/84
f 121/122/85 139/123/85 140/126/85 122/125/85
f 111/116/86 136/117/86 129/106/86 113/103/86
f 98/92/87 124/93/87 131/110/87 115/107/87
f 109/127/88 141/128/88 133/114/88 117/111/88
f 105/96/89 126/97/89 138/124/89 119/121/89
f 108/100/90 128/101/90 141/128/90 109/127/90
f 116/112/83 134/113/83 125/98/83 104/95/83
f 118/119/77 137/120/77 135/118/77 106/115/77
f 130/129/4 129/132/4 124/131/4 123/130/4
f 139/133/4 128/136/4 127/135/4 140/134/4
f 125/138/4 134/141/4 133/139/4 128/136/4
f 133/139/4 141/140/4 128/136/4
f 138/137/4 125/138/4 128/136/4 139/133/4
f 126/142/4 125/138/4 138/137/4
f 124/131/4 129/132/4 136/145/4 137/143/4
f 136/145/4 135/144/4 137/143/4
f 131/146/4 124/131/4 137/143/4 132/147/4
f 127/181/147 76/182/147 88/183/147 140/184/147
f 123/185/148 72/186/148 77/187/148 130/188/148
f 59/90/75 114/179/145 130/188/149 77/187/149
f 59/90/75 77/187/149 61/88/73
f 44/189/1 72/186/1 123/185/1 140/184/1
f 99/190/1 140/184/1 123/185/1 100/191/1
f 99/190/1 122/192/1 140/184/1
f 44/189/1 140/184/1 88/183/1 69/193/1
f 44/189/1 69/193/1 45/194/150
f 127/181/1 107/177/1 70/85/1 76/182/1
f 54/87/1 76/182/1 70/85/1
f 142/195/151 143/196/151 144/197/151 145/198/151
f 143/196/152 146/199/152 147/200/152 144/201/152
f 143/202/2 142/203/2 148/204/2 149/205/2
f 146/206/2 143/202/2 149/205/2 150/207/2
f 147/208/153 146/199/153 150/209/153 151/210/153
f 49/211/1 144/212/1 147/213/1 151/214/1
f 145/215/154 144/212/1 49/211/1 70/216/154
f 142/195/155 145/198/155 152/197/155 153/196/155
f 153/196/156 152/201/156 154/200/156 155/199/156
f 153/202/2 156/205/2 148/204/2 142/203/2
f 155/206/2 157/207/2 156/205/2 153/202/2
f 154/208/153 158/210/153 157/209/153 155/199/153
f 103/211/1 158/214/1 154/213/1 152/212/1
f 145/215/154 70/216/154 103/211/1 152/212/1
f 159/217/157 160/218/157 161/219/158 162/220/157
f 163/221/159 164/222/159 161/223/159 165/219/159
f 165/219/159 161/223/159 160/224/159
f 166/225/160 167/219/160 159/220/161 168/218/161
f 168/218/161 159/220/161 162/217/162
f 159/217/163 167/218/164 165/219/164 160/220/164
f 168/226/165 162/226/166 161/227/166 164/228/166
f 167/220/167 166/229/168 163/230/168 165/219/168
f 169/231/169 168/226/169 164/228/169 170/232/169
f 164/222/170 163/221/170 170/232/170
f 170/232/171 163/230/171 166/229/172 169/231/171
f 166/225/173 168/218/173 169/231/173
f 171/217/174 172/220/175 173/219/176 174/218/176
f 175/221/177 176/219/177 173/223/177 177/222/177
f 176/219/177 174/224/177 173/223/177
f 178/225/162 179/218/178 171/220/179 180/219/162
f 179/218/178 172/217/180 171/220/179
f 171/217/181 174/220/182 176/219/181 180/218/181
f 179/226/183 177/228/184 173/227/183 172/226/183
f 180/220/185 176/219/185 175/230/185 178/229/185
f 181/231/186 182/232/187 177/228/188 179/226/189
f 177/222/190 182/232/191 175/221/191
f 182/232/192 181/231/193 178/229/194 175/230/192
f 178/225/195 181/231/196 179/218/196
f 183/233/197 184/234/197 185/235/197 186/236/197
f 186/236/198 185/237/198 187/238/198 188/239/198
f 186/202/2 189/205/2 190/204/2 183/203/2
f 188/206/2 191/207/2 189/205/2 186/202/2
f 187/240/59 192/241/59 191/242/59 188/239/59
f 193/211/1 192/214/1 187/213/1 185/212/1
f 184/215/199 59/216/199 193/211/1 185/212/1
f 183/233/200 194/236/200 195/235/200 184/234/200
f 194/236/201 196/239/201 197/238/201 195/237/201
f 194/202/2 183/203/2 190/204/2 198/205/2
f 196/206/2 194/202/2 198/205/2 199/207/2
f 197/240/59 196/239/59 199/242/59 200/241/59
f 201/211/1 195/212/1 197/213/1 200/214/1
f 184/215/199 195/212/1 201/211/1 59/216/199
