# Blender 5.1.2
# www.blender.org
mtllib Wheel_ground.mtl
o Wheel
v 0.136816 0.793937 0.321433
v -0.136815 0.793937 0.321433
v -0.136816 0.470846 0.458577
v 0.136815 0.470846 0.458577
v -0.136816 0.145411 0.327093
v 0.136815 0.145411 0.327093
v -0.136816 0.008267 0.004002
v 0.136816 0.008267 0.004002
v -0.136816 0.139751 -0.321433
v 0.136815 0.139751 -0.321433
v -0.136816 0.462842 -0.458577
v 0.136816 0.462842 -0.458577
v -0.136815 0.788277 -0.327093
v 0.136816 0.788277 -0.327092
v -0.136816 0.925421 -0.004002
v 0.136815 0.925421 -0.004002
vn -0.0000 0.3907 0.9205
vn -0.0000 -0.3746 0.9272
vn -0.0000 -0.9205 0.3907
vn -0.0000 -0.9272 -0.3746
vn -0.0000 -0.3907 -0.9205
vn -0.0000 0.3746 -0.9272
vn -0.0000 0.9205 -0.3907
vn -0.0000 0.9272 0.3746
vn 1.0000 -0.0000 -0.0000
vn -1.0000 -0.0000 -0.0000
vt 0.311525 0.153204
vt 0.311526 0.023985
vt 0.214794 0.023984
vt 0.214793 0.153203
vt 0.118062 0.023984
vt 0.118061 0.153202
vt 0.891917 0.153208
vt 0.891918 0.023989
vt 0.795186 0.023989
vt 0.795185 0.153207
vt 0.698454 0.023988
vt 0.698453 0.153207
vt 0.601722 0.023987
vt 0.601721 0.153206
vt 0.504990 0.023987
vt 0.504989 0.153205
vt 0.408258 0.023986
vt 0.408257 0.153204
vt 0.479146 0.979473
vt 0.205547 0.866145
vt 0.092218 0.592545
vt 0.479146 0.205617
vt 0.205547 0.318946
vt 0.866074 0.592545
vt 0.752746 0.318946
vt 0.752746 0.866145
s 1
usemtl wheel_mat
f 1/1/1 2/2/1 3/3/1 4/4/1
f 4/4/2 3/3/2 5/5/2 6/6/2
f 6/7/3 5/8/3 7/9/3 8/10/3
f 8/10/4 7/9/4 9/11/4 10/12/4
f 10/12/5 9/11/5 11/13/5 12/14/5
f 12/14/6 11/13/6 13/15/6 14/16/6
f 14/16/7 13/15/7 15/17/7 16/18/7
f 16/18/8 15/17/8 2/2/8 1/1/8
f 1/19/9 4/20/9 6/21/9 10/22/9
f 6/21/9 8/23/9 10/22/9
f 14/24/9 1/19/9 10/22/9 12/25/9
f 16/26/9 1/19/9 14/24/9
f 15/26/10 13/24/10 11/25/10 7/23/10
f 11/25/10 9/22/10 7/23/10
f 3/20/10 15/26/10 7/23/10 5/21/10
f 2/19/10 15/26/10 3/20/10
